<svg width="19" height="20" viewBox="0 0 19 20" fill="none" xmlns="http://www.w3.org/2000/svg">
<g id="invisible 1" clip-path="url(#clip0_2_74)">
<g id="Group">
<g id="Group_2">
<g id="Group_3">
<path id="Vector" d="M9.43604 7.30576L12.133 10.0423L12.1458 9.89892C12.1458 8.46116 10.9943 7.29272 9.5773 7.29272L9.43604 7.30576Z" fill="black"/>
<path id="Vector_2" d="M9.57729 5.55527C11.9403 5.55527 13.8581 7.50125 13.8581 9.89895C13.8581 10.4593 13.7468 10.9936 13.5542 11.4844L16.0585 14.0254C17.3513 12.9308 18.3701 11.5148 18.9994 9.89895C17.514 6.08523 13.8624 3.38345 9.57733 3.38345C8.37869 3.38345 7.23145 3.60062 6.16553 3.99155L8.01484 5.86366C8.49852 5.67255 9.02507 5.55527 9.57729 5.55527Z" fill="black"/>
<path id="Vector_3" d="M1.01582 3.18805L2.96788 5.16876L3.35744 5.56405C1.94477 6.68471 0.827477 8.1746 0.159668 9.89901C1.64085 13.7127 5.29666 16.4145 9.57749 16.4145C10.9046 16.4145 12.1717 16.1539 13.3318 15.6804L13.6957 16.0496L16.1914 18.5863L17.283 17.483L2.10743 2.08041L1.01582 3.18805ZM5.75044 7.98781L7.07321 9.33C7.03469 9.5168 7.009 9.70355 7.009 9.89901C7.009 11.3368 8.16053 12.5052 9.57749 12.5052C9.77013 12.5052 9.95422 12.4791 10.134 12.4401L11.4568 13.7822C10.8874 14.0689 10.2539 14.2427 9.57749 14.2427C7.21448 14.2427 5.29666 12.2967 5.29666 9.89901C5.29666 9.21272 5.4679 8.56985 5.75044 7.98781Z" fill="black"/>
</g>
</g>
</g>
</g>
<defs>
<clipPath id="clip0_2_74">
<rect width="18.8399" height="19.1165" fill="white" transform="translate(0.159668 0.775146)"/>
</clipPath>
</defs>
</svg>
