<svg width="24" height="24" viewBox="0 0 24 24" fill="none" xmlns="http://www.w3.org/2000/svg">
<g id="message 1" clip-path="url(#clip0_22_83)">
<g id="Group">
<g id="Group_2">
<path id="Vector" d="M2.702 3.67073H21.5577C22.6664 3.67073 23.5684 4.58596 23.5684 5.71092V17.5342C23.5684 18.6591 22.6664 19.5743 21.5577 19.5743H2.702C1.59332 19.5743 0.691328 18.6591 0.691328 17.5342V5.71092C0.691328 4.58596 1.59332 3.67073 2.702 3.67073ZM2.96442 5.03086L3.23278 5.25759L11.3321 12.1009C11.7944 12.4914 12.4654 12.4914 12.9276 12.1009L21.0269 5.25759L21.2953 5.03086H2.96442ZM22.2279 6.01278L15.6288 11.5885L22.2279 16.0449V6.01278ZM2.702 18.2142H21.5577C21.8815 18.2142 22.1524 17.9799 22.2145 17.6697L14.554 12.4966L13.7853 13.1461C13.3057 13.5513 12.7177 13.754 12.1298 13.754C11.5419 13.754 10.954 13.5513 10.4743 13.1461L9.70559 12.4966L2.04518 17.6696C2.10729 17.98 2.37815 18.2142 2.702 18.2142ZM2.03178 16.0449L8.63091 11.5886L2.03178 6.01278V16.0449Z" fill="black"/>
</g>
</g>
</g>
<defs>
<clipPath id="clip0_22_83">
<rect width="22.877" height="23.2129" fill="white" transform="matrix(-1 0 0 1 23.5684 0.0160828)"/>
</clipPath>
</defs>
</svg>
