<svg width="23" height="24" viewBox="0 0 23 24" fill="none" xmlns="http://www.w3.org/2000/svg">
<g id="padlock 1" clip-path="url(#clip0_2_67)">
<g id="Group">
<g id="Group_2">
<path id="Vector" d="M17.4986 10.4541V6.77804C17.5083 5.1147 16.8536 3.51535 15.6848 2.34904C14.5547 1.20735 13.0755 0.582367 11.509 0.582367C11.4848 0.582367 11.4557 0.582367 11.4314 0.582367C8.08982 0.587288 5.37387 3.36279 5.37387 6.77804V10.4541C4.11289 10.6067 3.19141 11.6795 3.19141 12.9786V21.2362C3.19141 22.6388 4.29719 23.7952 5.67941 23.7952H17.1979C18.5802 23.7952 19.686 22.6388 19.686 21.2362V12.9786C19.6811 11.6844 18.7596 10.6067 17.4986 10.4541ZM6.339 6.77804H6.34385C6.34385 3.90411 8.62816 1.55182 11.4363 1.55182H11.4411C12.7748 1.5469 14.0552 2.0833 15.0009 3.038C15.9855 4.02714 16.5335 5.37552 16.5238 6.77804V10.459H15.4568V6.77804C15.4665 5.66095 15.03 4.58815 14.2492 3.80077C13.512 3.05276 12.5129 2.62955 11.4702 2.62955H11.4411C9.21015 2.62955 7.40598 4.48972 7.40598 6.77312V10.459H6.339V6.77804ZM14.4917 6.77804V10.459H8.38081V6.77804C8.38081 5.03597 9.74849 3.61869 11.446 3.61869H11.4751C12.2607 3.61869 13.0173 3.93856 13.5751 4.50449C14.1668 5.10486 14.5014 5.92669 14.4917 6.77804ZM18.7596 21.251C18.7596 22.1122 18.0709 22.811 17.2222 22.811H5.69881C4.85008 22.811 4.16139 22.1122 4.16139 21.251V13.0032C4.16139 12.142 4.85008 11.4432 5.69881 11.4432H17.2222C18.0709 11.4432 18.7596 12.142 18.7596 13.0032V21.251Z" fill="black"/>
</g>
</g>
<g id="Group_3">
<g id="Group_4">
<path id="Vector_2" d="M13.1139 16.822C12.9006 16.0593 12.2167 15.5376 11.4359 15.5376C10.4707 15.5376 9.68506 16.3299 9.68506 17.3141C9.68506 18.1064 10.1991 18.8003 10.9509 19.0168V20.3948C10.9509 20.6654 11.1691 20.8869 11.4359 20.8869C11.7026 20.8869 11.9209 20.6654 11.9209 20.3948V19.0168C12.8472 18.7462 13.3855 17.762 13.1139 16.822ZM11.4359 18.1015C11.0042 18.1015 10.655 17.7472 10.655 17.3092C10.655 16.8712 11.0042 16.5169 11.4359 16.5169C11.8675 16.5169 12.2167 16.8712 12.2167 17.3092C12.2167 17.7472 11.8675 18.1015 11.4359 18.1015Z" fill="black"/>
</g>
</g>
</g>
<defs>
<clipPath id="clip0_2_67">
<rect width="22.877" height="23.2129" fill="white" transform="translate(0 0.582367)"/>
</clipPath>
</defs>
</svg>
